<svg xmlns="http://www.w3.org/2000/svg" width="520" height="360" viewBox="0 0 520 360" fill="none">
  <defs>
    <linearGradient id="bg" x1="0" y1="0" x2="520" y2="360" gradientUnits="userSpaceOnUse">
      <stop stop-color="#E7FFF4"/>
      <stop offset="1" stop-color="#F4FBFF"/>
    </linearGradient>
    <linearGradient id="line" x1="70" y1="70" x2="430" y2="290" gradientUnits="userSpaceOnUse">
      <stop stop-color="#0B8F66"/>
      <stop offset="1" stop-color="#1673A6"/>
    </linearGradient>
  </defs>
  <rect x="20" y="20" width="480" height="320" rx="28" fill="url(#bg)" stroke="#BCE8D7"/>
  <rect x="56" y="64" width="110" height="64" rx="14" fill="#FFFFFF" stroke="#8ED3BD"/>
  <rect x="204" y="64" width="110" height="64" rx="14" fill="#FFFFFF" stroke="#8ED3BD"/>
  <rect x="352" y="64" width="110" height="64" rx="14" fill="#FFFFFF" stroke="#8ED3BD"/>
  <rect x="130" y="218" width="120" height="72" rx="14" fill="#FFFFFF" stroke="#8ED3BD"/>
  <rect x="282" y="218" width="120" height="72" rx="14" fill="#FFFFFF" stroke="#8ED3BD"/>
  <path d="M111 128L190 218" stroke="url(#line)" stroke-width="4" stroke-linecap="round"/>
  <path d="M259 128L190 218" stroke="url(#line)" stroke-width="4" stroke-linecap="round"/>
  <path d="M259 128L341 218" stroke="url(#line)" stroke-width="4" stroke-linecap="round"/>
  <path d="M407 128L341 218" stroke="url(#line)" stroke-width="4" stroke-linecap="round"/>
  <circle cx="111" cy="128" r="7" fill="#0B8F66"/>
  <circle cx="259" cy="128" r="7" fill="#0B8F66"/>
  <circle cx="407" cy="128" r="7" fill="#0B8F66"/>
  <circle cx="190" cy="218" r="7" fill="#1673A6"/>
  <circle cx="341" cy="218" r="7" fill="#1673A6"/>
  <text x="84" y="100" font-size="16" font-family="IBM Plex Sans, Source Han Sans SC, sans-serif" fill="#0A4734">应用层</text>
  <text x="232" y="100" font-size="16" font-family="IBM Plex Sans, Source Han Sans SC, sans-serif" fill="#0A4734">传输层</text>
  <text x="380" y="100" font-size="16" font-family="IBM Plex Sans, Source Han Sans SC, sans-serif" fill="#0A4734">网络层</text>
  <text x="152" y="260" font-size="16" font-family="IBM Plex Sans, Source Han Sans SC, sans-serif" fill="#0D3D5A">体系化主线</text>
  <text x="304" y="260" font-size="16" font-family="IBM Plex Sans, Source Han Sans SC, sans-serif" fill="#0D3D5A">面试速查</text>
</svg>
